<?xml version="1.0" encoding="UTF-8"?>
<svg id="Layer_2" data-name="Layer 2" xmlns="http://www.w3.org/2000/svg" viewBox="0 0 725 345.37">
  <defs>
    <style>
      .cls-1, .cls-2, .cls-3, .cls-4, .cls-5 {
        stroke-width: 0.25px;
      }

      .cls-1, .cls-2, .cls-3, .cls-5 {
        fill: none;
      }

      .cls-1, .cls-2, .cls-5 {
        stroke: #82dbf7;
      }

      .cls-1, .cls-3, .cls-4, .cls-5 {
        stroke-linejoin: round;
      }

      .cls-6, .cls-7 {
        stroke-width: 0px;
      }

      .cls-7, .cls-4 {
        fill: white;
      }

      .cls-2 {
        stroke-miterlimit: 10;
      }

      .cls-3, .cls-4 {
        stroke: #0eddf0;
      }

      .cls-3, .cls-4, .cls-5 {
        stroke-linecap: round;
      }
    </style>
  </defs>
  <g id="OBJECTS">
    <g>
      <g>
        <path class="cls-7" d="m593.94,144.74v34.39h5.25v3.89h-1.29v130.1h-42v-48.09s0,0,0,0v-2.35s0-13.69,0-13.69h0v-3.13s0-12.91,0-12.91h0v-3.92s0-12.12,0-12.12h0v-4.7s0-12.39,0-12.39h0v-16.82s-1.31,0-1.31,0v-3.89h5.25v-34.39h-5.25v-9.8l3.94,5.25h1.31v-10.5l3.94-9.18v-10.51c-.73,0-1.31-.59-1.31-1.31s.59-1.31,1.32-1.31l13.11-23.59,13.12,23.59c.72,0,1.31.59,1.31,1.31s-.56,1.28-1.26,1.31l-.05,10.51,3.93,9.18h0v10.5h1.31l3.94-5.25v9.8h-5.25Z"/>
        <g>
          <g>
            <line class="cls-5" x1="599.18" y1="140.2" x2="599.18" y2="178.84"/>
            <line class="cls-5" x1="597.89" y1="188" x2="597.89" y2="183.02"/>
            <g>
              <path class="cls-5" d="m591.31,108.7c0-.72-.59-1.31-1.31-1.31h-26.23c-.72,0-1.31.59-1.31,1.31h0c0,.72.59,1.31,1.31,1.31h26.23c.72,0,1.31-.59,1.31-1.31h0Z"/>
              <path class="cls-5" d="m562.45,140.19v-5.25s0-2.62,2.62-2.62,2.62,2.62,2.62,2.62v5.25"/>
              <path class="cls-5" d="m570.33,140.19v-5.25s0-2.62,2.62-2.62,2.62,2.62,2.62,2.62v5.25"/>
              <path class="cls-5" d="m578.2,140.19v-5.25s0-2.62,2.62-2.62,2.62,2.62,2.62,2.62v5.25"/>
              <path class="cls-5" d="m566.39,120.51v-5.25s0-2.62,2.62-2.62,2.62,2.62,2.62,2.62v5.25"/>
              <path class="cls-5" d="m574.27,120.51v-5.25s0-2.62,2.62-2.62,2.62,2.62,2.62,2.62v5.25"/>
              <path class="cls-5" d="m582.14,120.51v-5.25s0-2.62,2.62-2.62,2.62,2.62,2.62,2.62v5.25"/>
              <path class="cls-5" d="m586.08,140.19v-5.25s0-2.62,2.62-2.62,2.62,2.62,2.62,2.62v5.25"/>
              <polyline class="cls-5" points="559.83 140.19 559.83 129.7 593.93 129.7 593.93 140.19"/>
              <polyline class="cls-5" points="559.83 155.24 559.83 144.75 593.93 144.75 593.93 155.24"/>
              <line class="cls-5" x1="554.58" y1="178.84" x2="554.58" y2="141.51"/>
              <polyline class="cls-5" points="554.59 141.5 554.59 134.95 558.52 140.19"/>
              <polyline class="cls-5" points="599.18 141.5 599.18 134.95 595.24 140.19"/>
              <polyline class="cls-5" points="559.83 129.7 563.77 120.52 590 120.52 593.93 129.7"/>
              <line class="cls-5" x1="563.77" y1="110.01" x2="563.77" y2="120.52"/>
              <line class="cls-5" x1="590.01" y1="110.01" x2="590.01" y2="120.52"/>
              <polyline class="cls-5" points="563.77 107.4 576.88 83.79 590 107.39"/>
              <line class="cls-5" x1="576.88" y1="83.8" x2="576.88" y2="73.31"/>
              <circle class="cls-5" cx="576.88" cy="78.55" r="1.31"/>
              <rect class="cls-5" x="559.83" y="144.74" width="34.1" height="34.1"/>
              <line class="cls-5" x1="555.89" y1="188" x2="555.9" y2="183.02"/>
              <rect class="cls-5" x="555.9" y="188" width="41.99" height="11.83"/>
              <rect class="cls-5" x="555.9" y="199.82" width="41.99" height="113.3"/>
              <rect class="cls-5" x="555.9" y="211.65" width="41.99" height="5.27"/>
              <rect class="cls-5" x="555.9" y="227.68" width="41.99" height="5.27"/>
              <rect class="cls-5" x="555.9" y="243.71" width="41.99" height="5.27"/>
              <rect class="cls-5" x="555.9" y="259.75" width="41.99" height="5.27"/>
              <rect class="cls-5" x="555.9" y="275.78" width="41.99" height="5.27"/>
              <rect class="cls-5" x="555.9" y="291.81" width="41.99" height="5.27"/>
              <line class="cls-5" x1="576.89" y1="188" x2="576.89" y2="183.02"/>
              <line class="cls-5" x1="566.39" y1="188" x2="566.4" y2="183.02"/>
              <line class="cls-5" x1="588.7" y1="188" x2="588.7" y2="183.02"/>
              <line class="cls-5" x1="576.89" y1="313.12" x2="576.89" y2="199.82"/>
              <line class="cls-5" x1="566.39" y1="313.12" x2="566.4" y2="199.82"/>
              <line class="cls-5" x1="588.7" y1="313.12" x2="588.7" y2="199.82"/>
              <circle class="cls-5" cx="576.88" cy="161.79" r="11.8" transform="translate(392.52 731.86) rotate(-87.74)"/>
              <circle class="cls-5" cx="576.88" cy="161.79" r="5.25"/>
              <circle class="cls-5" cx="576.88" cy="161.79" r="1.31"/>
              <line class="cls-5" x1="569.01" y1="153.92" x2="576.88" y2="161.79"/>
              <line class="cls-5" x1="584.75" y1="161.79" x2="576.88" y2="161.79"/>
              <circle class="cls-6" cx="563.77" cy="148.68" r="1.31"/>
              <circle class="cls-6" cx="590.01" cy="148.68" r="1.31"/>
              <circle class="cls-6" cx="563.77" cy="174.92" r="1.31"/>
              <circle class="cls-6" cx="590.01" cy="174.92" r="1.31"/>
            </g>
          </g>
          <rect class="cls-5" x="554.59" y="140.2" width="44.59" height="4.54"/>
          <rect class="cls-5" x="554.58" y="179.12" width="44.6" height="3.9"/>
        </g>
      </g>
      <path class="cls-7" d="m210.17,308.31v-4.56h-2.28v-4.57h-2.29v-4.56h-2.28v-4.57h-6.86v-15.99h9.13c-9.11-4.55-9.12-9.1-9.12-9.12v-6.86h9.13c-9.13-4.56-15.98-15.98-15.98-15.98v-6.83s-6.83,2.28-6.84,6.83h-77.62c0-4.55-6.84-6.83-6.84-6.83v6.83s-1.71,2.86-4.57,6.28c-2.85,3.43-6.85,7.42-11.41,9.7h9.13v6.86h0s0,4.56-9.13,9.12h9.13v15.99h-6.85v4.56h.05s-2.34,0-2.34,0v4.56h-2.28v4.56h.06s-2.34,0-2.34,0v4.56h-2.28v4.57h136.98v-4.57h-2.28Z"/>
      <g>
        <path class="cls-2" d="m112.05,290.08v-6.85s0-4.56,4.56-4.56,4.56,4.56,4.56,4.56v6.85"/>
        <path class="cls-2" d="m98.35,290.08v-6.85s0-4.56,4.56-4.56,4.56,4.56,4.56,4.56v6.85"/>
        <path class="cls-2" d="m125.76,290.08v-6.85s0-4.56,4.56-4.56,4.56,4.56,4.56,4.56v6.85"/>
        <path class="cls-2" d="m139.46,290.08v-6.85s0-4.56,4.56-4.56"/>
        <path class="cls-5" d="m143.96,264.94h-52.5s0,4.56-9.13,9.13h61.63"/>
        <path class="cls-5" d="m143.96,242.1h-45.65s-6.85,11.41-15.98,15.98h61.63"/>
        <polyline class="cls-5" points="91.47 274.06 91.47 290.04 143.96 290.04"/>
        <line class="cls-5" x1="91.47" y1="264.93" x2="91.47" y2="258.09"/>
        <path class="cls-5" d="m98.31,242.11v-6.85s6.85,2.28,6.85,6.85"/>
        <polyline class="cls-5" points="123.39 294.61 84.61 294.61 84.61 290.05 146.23 290.05"/>
        <polyline class="cls-5" points="122.95 299.18 82.32 299.18 82.32 294.61 124.32 294.61"/>
        <polyline class="cls-5" points="121.11 303.75 80.04 303.75 80.04 299.18 122.95 299.18"/>
        <polyline class="cls-5" points="120.2 308.32 77.76 308.31 77.76 303.75 121.57 303.75"/>
        <polyline class="cls-5" points="187.34 312.88 75.47 312.88 75.47 308.32 120.2 308.32"/>
        <line class="cls-5" x1="130.26" y1="290.05" x2="123.4" y2="312.87"/>
        <line class="cls-5" x1="125.69" y1="290.05" x2="118.84" y2="312.87"/>
        <path class="cls-2" d="m175.88,290.08v-6.85s0-4.56-4.56-4.56c-4.56,0-4.56,4.56-4.56,4.56v6.85"/>
        <path class="cls-2" d="m189.58,290.08v-6.85s0-4.56-4.56-4.56-4.56,4.56-4.56,4.56v6.85"/>
        <path class="cls-2" d="m162.18,290.08v-6.85s0-4.56-4.56-4.56c-4.56,0-4.56,4.56-4.56,4.56v6.85"/>
        <path class="cls-2" d="m148.48,290.08v-6.85s0-4.56-4.56-4.56"/>
        <path class="cls-5" d="m143.97,264.94h52.5s0,4.56,9.13,9.13h-61.63"/>
        <path class="cls-5" d="m143.97,242.1h45.65s6.85,11.41,15.98,15.98h-61.63"/>
        <polyline class="cls-5" points="196.47 274.06 196.47 290.04 143.97 290.04"/>
        <line class="cls-5" x1="196.47" y1="264.93" x2="196.47" y2="258.09"/>
        <path class="cls-5" d="m189.62,242.11v-6.85s-6.85,2.28-6.85,6.85"/>
        <polyline class="cls-5" points="164.54 294.61 203.33 294.61 203.33 290.05 141.7 290.05"/>
        <polyline class="cls-5" points="164.99 299.18 205.61 299.18 205.61 294.61 163.62 294.61"/>
        <polyline class="cls-5" points="166.82 303.75 207.89 303.75 207.89 299.18 164.99 299.18"/>
        <polyline class="cls-5" points="167.73 308.32 210.18 308.31 210.18 303.75 166.36 303.75"/>
        <polyline class="cls-5" points="169.11 312.88 212.46 312.88 212.46 308.32 167.73 308.32"/>
        <line class="cls-5" x1="157.68" y1="290.05" x2="164.53" y2="312.87"/>
        <line class="cls-5" x1="162.25" y1="290.05" x2="169.1" y2="312.87"/>
      </g>
      <g>
        <polygon class="cls-7" points="251.13 148.19 251.13 312.88 212.6 312.88 212.6 148.19 215.46 148.19 215.46 126.78 218.31 126.78 218.31 109.66 219.74 109.66 219.74 105.39 222.59 105.39 222.59 101.1 225.45 101.1 225.45 96.82 226.87 96.82 229.72 76.85 234 76.85 236.85 96.82 238.28 96.82 238.28 101.1 241.13 101.1 241.13 105.39 243.99 105.39 243.99 109.66 245.42 109.66 245.42 126.78 248.27 126.78 248.27 148.19 251.13 148.19"/>
        <g>
          <line class="cls-2" x1="212.6" y1="191.4" x2="251.13" y2="191.4"/>
          <line class="cls-2" x1="212.6" y1="197.53" x2="251.13" y2="197.53"/>
          <line class="cls-2" x1="212.6" y1="203.66" x2="251.13" y2="203.66"/>
          <line class="cls-2" x1="212.6" y1="209.8" x2="251.13" y2="209.8"/>
          <polyline class="cls-2" points="215.46 148.18 215.46 126.78 228.3 126.78 228.3 148.18"/>
          <polyline class="cls-2" points="218.31 126.78 218.31 109.66 235.43 109.66"/>
          <polygon class="cls-2" points="251.13 312.88 251.13 148.18 235.44 148.18 235.44 191.4 228.3 191.4 228.3 148.18 212.6 148.18 212.6 312.88 251.13 312.88"/>
          <polyline class="cls-2" points="248.28 148.18 248.28 126.78 235.44 126.78 235.44 148.18"/>
          <polyline class="cls-2" points="245.42 126.78 245.42 109.66 228.3 109.66"/>
          <polyline class="cls-2" points="219.74 109.67 219.74 105.39 243.99 105.39 243.99 109.67"/>
          <polyline class="cls-2" points="222.59 105.39 222.59 101.1 241.13 101.1 241.13 105.39"/>
          <polyline class="cls-2" points="225.45 101.1 225.45 96.82 238.28 96.82 238.28 101.1"/>
          <polyline class="cls-2" points="226.87 96.83 229.72 76.85 234 76.85 236.85 96.82"/>
          <line class="cls-2" x1="231.86" y1="76.86" x2="231.86" y2="50.16"/>
        </g>
      </g>
      <g>
        <path class="cls-7" d="m509.35,236.34v76.55h-184.49v-76.55s11.77,0,11.77,15.7h17.66v-21.58c0-6.5,7.03-11.77,15.7-11.77,6.79,0,12.55,3.23,14.75,7.76,1.55-20.24,32.34-37.19,32.34-37.19,0,0,30.91,17.02,32.35,37.31,2.14-4.59,7.96-7.88,14.8-7.88,8.67,0,15.7,5.27,15.7,11.77v21.58h17.67c0-15.7,11.77-15.7,11.77-15.7Z"/>
        <g>
          <polyline class="cls-2" points="387.64 312.86 387.64 248.11 446.5 248.11 446.5 312.86"/>
          <polyline class="cls-2" points="393.53 312.86 393.53 253.99 440.62 253.99 440.62 312.86"/>
          <path class="cls-1" d="m432.77,312.86s0-13.73,0-27.47c0-13.73-15.7-17.66-15.7-25.51h0c0,7.85-15.7,11.77-15.7,25.51v27.47"/>
          <line class="cls-1" x1="401.37" y1="291.28" x2="432.76" y2="291.28"/>
          <path class="cls-1" d="m411.18,291.28v-9.81c0-3.25,2.64-5.89,5.89-5.89s5.89,2.64,5.89,5.89v9.81"/>
          <path class="cls-1" d="m411.18,312.87v-9.81c0-3.25,2.64-5.89,5.89-5.89s5.89,2.64,5.89,5.89v9.81"/>
          <path class="cls-1" d="m450.42,246.16c0-1.08-.88-1.96-1.96-1.96h-62.78c-1.08,0-1.96.88-1.96,1.96h0c0,1.08.88,1.96,1.96,1.96h62.78c1.08,0,1.96-.88,1.96-1.96h0Z"/>
          <path class="cls-1" d="m450.42,236.34c0-1.08-.88-1.96-1.96-1.96h-62.78c-1.08,0-1.96.88-1.96,1.96h0c0,1.08.88,1.96,1.96,1.96h62.78c1.08,0,1.96-.88,1.96-1.96h0Z"/>
          <rect class="cls-1" x="387.64" y="238.31" width="58.86" height="5.89"/>
          <path class="cls-1" d="m448.46,234.38c7.85-23.54-31.39-45.12-31.39-45.12,0,0-39.24,21.58-31.39,45.12"/>
          <line class="cls-1" x1="400.58" y1="201.03" x2="433.55" y2="201.03"/>
          <path class="cls-1" d="m340.55,281.47h5.89s0-11.77,0-11.77c0-5.89-5.88-9.81-5.88-9.81,0,0-5.89,3.92-5.89,9.81v11.77h5.89"/>
          <path class="cls-1" d="m371.96,281.47h5.89s0-11.77,0-11.77c0-5.89-5.88-9.81-5.88-9.81,0,0-5.89,3.92-5.89,9.81v11.77h5.89"/>
          <line class="cls-1" x1="356.25" y1="252.04" x2="356.25" y2="312.86"/>
          <line class="cls-1" x1="324.86" y1="281.47" x2="387.64" y2="281.47"/>
          <path class="cls-1" d="m340.55,312.88h5.89s0-11.77,0-11.77c0-5.89-5.88-9.81-5.88-9.81,0,0-5.89,3.92-5.89,9.81v11.77h5.89"/>
          <path class="cls-1" d="m371.96,312.88h5.89s0-11.77,0-11.77c0-5.89-5.88-9.81-5.88-9.81,0,0-5.89,3.92-5.89,9.81v11.77h5.89"/>
          <polyline class="cls-1" points="387.64 252.04 324.86 252.04 324.86 312.86 324.86 312.88 446.5 312.88"/>
          <path class="cls-1" d="m324.86,252.04v-15.7s11.77,0,11.77,15.7h-11.77Z"/>
          <path class="cls-1" d="m493.66,281.47h-5.89v-11.77c0-5.89,5.88-9.81,5.88-9.81,0,0,5.89,3.92,5.89,9.81v11.77h-5.89"/>
          <path class="cls-1" d="m462.25,281.47h-5.89v-11.77c0-5.89,5.88-9.81,5.88-9.81,0,0,5.89,3.92,5.89,9.81v11.77h-5.89"/>
          <line class="cls-1" x1="477.96" y1="252.04" x2="477.96" y2="312.86"/>
          <line class="cls-1" x1="509.35" y1="281.47" x2="446.57" y2="281.47"/>
          <path class="cls-1" d="m493.66,312.88h-5.89v-11.77c0-5.89,5.88-9.81,5.88-9.81,0,0,5.89,3.92,5.89,9.81v11.77h-5.89"/>
          <path class="cls-1" d="m462.25,312.88h-5.89v-11.77c0-5.89,5.88-9.81,5.88-9.81,0,0,5.89,3.92,5.89,9.81v11.77h-5.89"/>
          <polyline class="cls-1" points="446.57 252.04 509.35 252.04 509.35 312.86 509.35 312.88 446.57 312.88"/>
          <path class="cls-1" d="m509.35,252.04v-15.7s-11.77,0-11.77,15.7h11.77Z"/>
          <path class="cls-1" d="m368.02,252.04v-11.77s0-3.92-3.92-5.89h0c-3.92,1.96-3.92,5.89-3.92,5.89v11.77"/>
          <path class="cls-1" d="m379.79,252.04v-11.77s0-3.92-3.92-5.89h0c-3.92,1.96-3.92,5.89-3.92,5.89v11.77"/>
          <path class="cls-1" d="m354.29,252.04v-21.58c0-6.5,7.03-11.77,15.7-11.77,6.76,0,12.53,3.2,14.73,7.7"/>
          <line class="cls-5" x1="369.98" y1="218.19" x2="369.98" y2="210.24"/>
          <line class="cls-5" x1="464.21" y1="218.19" x2="464.21" y2="210.24"/>
          <line class="cls-1" x1="354.29" y1="230.46" x2="385.68" y2="230.46"/>
          <path class="cls-1" d="m466.18,252.04v-11.77s0-3.92,3.92-5.89h0c3.92,1.96,3.92,5.89,3.92,5.89v11.77"/>
          <path class="cls-1" d="m454.4,252.04v-11.77s0-3.92,3.92-5.89h0c3.92,1.96,3.92,5.89,3.92,5.89v11.77"/>
          <path class="cls-1" d="m449.43,226.49c2.17-4.54,7.97-7.8,14.78-7.8,8.67,0,15.7,5.27,15.7,11.77v21.58"/>
          <line class="cls-1" x1="479.91" y1="230.46" x2="448.52" y2="230.46"/>
        </g>
        <line class="cls-5" x1="417.07" y1="189.26" x2="417.07" y2="176.53"/>
      </g>
      <g>
        <polygon class="cls-7" points="355.73 312.88 223.04 312.88 235.8 274.6 263.75 274.6 263.75 246.54 314.77 246.54 314.77 274.6 342.97 274.6 355.73 312.88"/>
        <g>
          <polyline class="cls-5" points="266.39 282.25 233.25 282.25 235.8 274.6 291.92 274.6"/>
          <polyline class="cls-5" points="265.89 289.91 230.7 289.91 233.25 282.25 269.47 282.25"/>
          <polyline class="cls-5" points="263.84 297.57 228.15 297.57 230.7 289.91 265.89 289.91"/>
          <polyline class="cls-5" points="262.83 305.23 225.59 305.22 228.15 297.57 264.36 297.57"/>
          <polyline class="cls-5" points="337.87 312.88 223.04 312.88 225.59 305.23 262.83 305.23"/>
          <line class="cls-5" x1="279.17" y1="274.6" x2="268.96" y2="312.87"/>
          <line class="cls-5" x1="271.51" y1="274.6" x2="261.3" y2="312.87"/>
          <polyline class="cls-5" points="312.38 282.25 345.52 282.25 342.97 274.6 286.86 274.6"/>
          <polyline class="cls-5" points="312.88 289.91 348.08 289.91 345.52 282.25 309.31 282.25"/>
          <polyline class="cls-5" points="314.93 297.57 350.63 297.57 348.08 289.91 311.35 289.91"/>
          <polyline class="cls-5" points="315.95 305.23 353.18 305.22 350.63 297.57 314.42 297.57"/>
          <polyline class="cls-5" points="317.49 312.88 355.73 312.88 353.18 305.23 315.95 305.23"/>
          <line class="cls-5" x1="299.61" y1="274.6" x2="309.82" y2="312.87"/>
          <line class="cls-5" x1="307.27" y1="274.6" x2="317.48" y2="312.87"/>
          <rect class="cls-5" x="263.75" y="246.53" width="51.02" height="28.07"/>
          <line class="cls-5" x1="314.77" y1="254.19" x2="263.75" y2="254.19"/>
          <path class="cls-5" d="m281.61,274.6v-7.65c0-4.23,3.43-7.65,7.65-7.65s7.65,3.43,7.65,7.65v7.65"/>
          <line class="cls-5" x1="263.75" y1="266.95" x2="281.61" y2="266.95"/>
          <line class="cls-5" x1="296.93" y1="266.95" x2="314.79" y2="266.95"/>
        </g>
      </g>
      <g>
        <path class="cls-7" d="m574.32,261.41l-43.28-29.14-43.27,29.14v5.77h13.23c-1.77,0-5.3.89-5.3,5.3s3.53,4.42,5.3,4.42c.24,0,.56-.08.89-.23l-1.77,28.5h-7.1v7.94h76v-7.94h-7.04l-1.8-28.52c.34.16.66.25.91.25,1.76,0,5.29,0,5.29-4.42s-3.53-5.3-5.29-5.3h13.23v-5.77Zm-49.46,43.76h-12.38l-1.77-28.5c.33.15.64.23.89.23,1.76,0,5.3,0,5.3-4.42s-3.54-5.3-5.3-5.3h14.15c-1.77,0-5.3.89-5.3,5.3s3.53,4.42,5.3,4.42c.25,0,.58-.09.91-.25l-1.8,28.52Zm24.74,0h-12.38l-1.76-28.5c.32.15.64.23.88.23,1.76,0,5.29,0,5.29-4.42s-3.53-5.3-5.29-5.3h14.15c-1.77,0-5.3.89-5.3,5.3s3.53,4.42,5.3,4.42c.24,0,.54-.07.87-.22l-1.75,28.49Z"/>
        <g>
          <path class="cls-5" d="m525.75,274.26s-1.77,0-1.77-1.77,1.77-1.77,1.77-1.77c0,0,2.65,0,2.65,2.65s-1.77,3.53-2.65,3.53c-1.77,0-5.3,0-5.3-4.42s3.53-5.3,5.3-5.3h9.71"/>
          <path class="cls-5" d="m536.34,274.26s1.77,0,1.77-1.77-1.77-1.77-1.77-1.77c0,0-2.65,0-2.65,2.65,0,2.65,1.77,3.53,2.65,3.53,1.77,0,5.3,0,5.3-4.42,0-4.42-3.53-5.3-5.3-5.3h-9.71"/>
          <polyline class="cls-5" points="526.63 276.68 524.86 305.17 537.24 305.17 535.46 276.68"/>
          <rect class="cls-5" x="493.02" y="305.17" width="76" height="7.95"/>
          <line class="cls-5" x1="525.17" y1="300.75" x2="536.93" y2="300.75"/>
          <path class="cls-5" d="m550.49,274.26s-1.77,0-1.77-1.77,1.77-1.77,1.77-1.77c0,0,2.65,0,2.65,2.65s-1.77,3.53-2.65,3.53c-1.77,0-5.3,0-5.3-4.42s3.53-5.3,5.3-5.3h9.71"/>
          <path class="cls-5" d="m561.09,274.26s1.77,0,1.77-1.77-1.77-1.77-1.77-1.77c0,0-2.65,0-2.65,2.65,0,2.65,1.77,3.53,2.65,3.53,1.77,0,5.3,0,5.3-4.42,0-4.42-3.53-5.3-5.3-5.3h-9.71"/>
          <polyline class="cls-5" points="551.37 276.68 549.61 305.17 561.98 305.17 560.2 276.68"/>
          <line class="cls-5" x1="549.91" y1="300.75" x2="561.67" y2="300.75"/>
          <path class="cls-5" d="m501.01,274.26s-1.77,0-1.77-1.77,1.77-1.77,1.77-1.77c0,0,2.65,0,2.65,2.65s-1.77,3.53-2.65,3.53c-1.77,0-5.3,0-5.3-4.42s3.53-5.3,5.3-5.3h9.71"/>
          <path class="cls-5" d="m511.6,274.26s1.77,0,1.77-1.77-1.77-1.77-1.77-1.77c0,0-2.65,0-2.65,2.65,0,2.65,1.77,3.53,2.65,3.53,1.77,0,5.3,0,5.3-4.42,0-4.42-3.53-5.3-5.3-5.3h-9.71"/>
          <polyline class="cls-5" points="501.89 276.68 500.12 305.17 512.49 305.17 510.72 276.68"/>
          <line class="cls-5" x1="500.43" y1="300.75" x2="512.19" y2="300.75"/>
          <polygon class="cls-5" points="487.77 261.42 574.32 261.42 531.05 232.27 487.77 261.42"/>
          <polygon class="cls-5" points="506.68 255.64 531.05 239.23 555.41 255.64 506.68 255.64"/>
          <rect class="cls-5" x="487.77" y="261.42" width="86.55" height="5.78"/>
        </g>
      </g>
      <g>
        <g>
          <g>
            <path class="cls-7" d="m41.02,236.81c-1.22,7.47-2.77,15.09-4.74,22.39l4.74-22.39Z"/>
            <path class="cls-7" d="m86.66,303.93c-1.6-5.25-4.65-13.6-10.34-26.84-1.26-2.95-2.42-6.03-3.49-9.23,1.25-1.06,5.41-4.87,5.41-8.67h-8c-1.97-7.3-3.52-14.92-4.74-22.39h3.13s3.84-4.48,3.84-8.95h-8.3c-3.22-24.18-3.22-44.71-3.22-44.71,0,0,3.84,0,3.84-4.48s-3.84-4.48-3.84-4.48h-.03.03s3.84,0,3.84-4.48-3.84-4.47-3.84-4.47c0-4.94-3.44-8.95-7.69-8.95s-7.68,4.01-7.68,8.95c0,0-3.84,0-3.84,4.47s3.84,4.48,3.84,4.48h.03s-.03,0-.03,0c0,0-3.84,0-3.84,4.48s3.84,4.48,3.84,4.48c0,0,0,20.54-3.23,44.71h-8.29c0,4.48,3.84,8.95,3.84,8.95h3.13c-1.22,7.47-2.77,15.09-4.74,22.39h-8c0,3.8,4.16,7.6,5.41,8.66-1.07,3.2-2.22,6.29-3.49,9.24-5.69,13.24-8.75,21.59-10.33,26.84-2.72,8.95-1.19,8.95-1.19,8.95h19.21s0-4.48,1.92-8.95c1.93-4.48,5.77-8.95,13.45-8.95s11.53,4.48,13.45,8.95c1.93,4.48,1.93,8.95,1.93,8.95h19.21s1.53,0-1.19-8.95Zm-42.85-44.74l9.45-22,9.46,22h-18.91Z"/>
            <path class="cls-7" d="m70.24,259.19c-1.97-7.3-3.52-14.92-4.74-22.39l4.74,22.39Z"/>
          </g>
          <polygon class="cls-7" points="62.72 259.19 43.81 259.19 53.26 237.19 62.72 259.19"/>
        </g>
        <g>
          <g>
            <path class="cls-5" d="m33.69,267.85c-1.06,3.2-2.22,6.3-3.49,9.24-15.37,35.79-11.53,35.79-11.53,35.79h19.22s0-17.9,15.37-17.9"/>
            <path class="cls-5" d="m41.02,236.8c-1.22,7.47-2.77,15.09-4.74,22.39"/>
            <path class="cls-5" d="m53.26,183.14h-7.69s0,20.54-3.23,44.72"/>
            <path class="cls-2" d="m53.26,183.14h-7.69s-3.84,0-3.84-4.47,3.84-4.47,3.84-4.47h7.69"/>
            <path class="cls-2" d="m53.26,174.18h-7.69s-3.84,0-3.84-4.47,3.84-4.47,3.84-4.47h7.69"/>
            <path class="cls-2" d="m45.58,165.24c0-4.94,3.44-8.95,7.69-8.95"/>
            <line class="cls-2" x1="19.86" y1="303.93" x2="39.81" y2="303.93"/>
            <path class="cls-1" d="m53.26,268.14h-19.22s-5.76-4.47-5.76-8.95h24.98"/>
            <path class="cls-1" d="m53.26,236.81h-15.37s-3.84-4.47-3.84-8.95h19.21"/>
            <path class="cls-5" d="m72.83,267.85c1.06,3.2,2.22,6.3,3.49,9.24,15.37,35.79,11.53,35.79,11.53,35.79h-19.22s0-17.9-15.37-17.9"/>
            <path class="cls-5" d="m65.5,236.8c1.22,7.47,2.77,15.09,4.74,22.39"/>
            <path class="cls-5" d="m53.26,183.14h7.69s0,20.54,3.23,44.72"/>
            <path class="cls-2" d="m53.26,183.14h7.69s3.84,0,3.84-4.47-3.84-4.47-3.84-4.47h-7.69"/>
            <path class="cls-2" d="m53.26,174.18h7.69s3.84,0,3.84-4.47-3.84-4.47-3.84-4.47h-7.69"/>
            <path class="cls-2" d="m60.95,165.24c0-4.94-3.44-8.95-7.69-8.95"/>
            <line class="cls-2" x1="86.66" y1="303.93" x2="66.71" y2="303.93"/>
            <path class="cls-1" d="m53.26,268.14h19.22s5.76-4.47,5.76-8.95h-24.98"/>
            <path class="cls-5" d="m53.26,236.81h15.37s3.84-4.47,3.84-8.95h-19.21v-21.69"/>
            <line class="cls-2" x1="53.26" y1="136.16" x2="53.26" y2="156.29"/>
            <path class="cls-5" d="m70.16,303.93c0-10.86-7.56-19.67-16.89-19.67s-16.89,8.8-16.89,19.67"/>
          </g>
          <polygon class="cls-5" points="53.26 237.19 43.81 259.19 62.71 259.19 53.26 237.19"/>
        </g>
      </g>
      <g>
        <path class="cls-7" d="m712.45,280.91l-11.63-30.4v-23.42h0s.03,0,.03,0c0,0,7.02-2.34,7.02-11.7,0-1.2-.31-2.45-.85-3.72h0s0,0,0,0c-1.1-2.58-3.14-5.28-5.47-8.02h0s0,0,0,0c-5.43-6.39-12.4-12.97-12.4-18.68h-.01c0,5.48-6.41,11.76-11.73,17.9v-34.28s-2.34,2.34-2.34,2.34l-.03.03v-.03h.03l-7.02-25.74h0c1.29,0,2.34-1.05,2.34-2.34s-1.05-2.34-2.34-2.34v-6.83h0c1.34-1.04,2.34-2.58,2.34-4.87,0-7.02-9.36-9.36-9.36-16.38,0,7.02-9.36,9.36-9.36,16.38,0,2.29,1,3.83,2.34,4.87h0v6.83c-1.29,0-2.34,1.05-2.34,2.34s1.05,2.34,2.34,2.34h0l-7.02,25.74-2.34-2.34v41.26c-4.78-5.51-10.41-11.13-11.5-16.18l-.19-1.67c0,.08,0,.16,0,.24,0-.08-.01-.16-.01-.24h-.01c0,.08-.01.17-.02.25,0-.08,0-.17,0-.25l-.19,1.67c-1.95,9.05-18.53,19.94-18.53,28.75,0,9.36,7.02,11.7,7.02,11.7h0c-1.29,0-2.34,1.05-2.34,2.34s1.05,2.34,2.34,2.34v18.58l-11.65-30.44-11.7,30.57v55.61h114.61v-32.21h-.05Z"/>
        <g>
          <g>
            <g>
              <path class="cls-5" d="m632.94,234.11h-11.7s-7.02-2.34-7.02-11.7,18.72-21.06,18.72-30.42"/>
              <path class="cls-5" d="m628.26,234.11s-7.02-2.34-7.02-11.7,11.7-21.06,11.7-30.42"/>
              <path class="cls-5" d="m632.95,234.11h11.7s7.02-2.34,7.02-11.7-18.72-21.06-18.72-30.42"/>
              <path class="cls-5" d="m637.63,234.11s7.02-2.34,7.02-11.7c0-9.36-11.7-21.06-11.7-30.42"/>
              <path class="cls-5" d="m646.98,236.45c0-1.29-1.05-2.34-2.34-2.34h-23.4c-1.29,0-2.34,1.05-2.34,2.34h0c0,1.29,1.05,2.34,2.34,2.34h23.4c1.29,0,2.34-1.05,2.34-2.34h0Z"/>
              <line class="cls-5" x1="621.24" y1="238.79" x2="621.24" y2="257.51"/>
              <line class="cls-5" x1="644.64" y1="238.79" x2="644.64" y2="249.38"/>
              <line class="cls-5" x1="621.24" y1="243.47" x2="644.64" y2="243.47"/>
              <g>
                <path class="cls-5" d="m689.13,227.09h-11.7s-7.02-2.34-7.02-11.7,18.72-21.06,18.72-30.42"/>
                <path class="cls-5" d="m689.14,227.09h11.7s7.02-2.34,7.02-11.7c0-9.36-18.72-21.06-18.72-30.42"/>
                <path class="cls-5" d="m671.24,211.71c1.9,1.94,7.16,6.01,17.86,6.01s16.05-4.15,17.91-6.07"/>
                <path class="cls-5" d="m676.72,203.67c2.9,1.29,6.94,2.35,12.38,2.35s9.54-1.07,12.44-2.37"/>
                <line class="cls-5" x1="677.4" y1="227.09" x2="677.4" y2="242.22"/>
                <line class="cls-5" x1="700.82" y1="227.09" x2="700.82" y2="250.47"/>
                <line class="cls-5" x1="677.4" y1="231.77" x2="700.8" y2="231.77"/>
                <path class="cls-5" d="m686.76,238.79h0c0-1.29-1.05-2.34-2.34-2.34h0c-1.29,0-2.34,1.05-2.34,2.34h0v4.68h4.68v-4.68Z"/>
                <path class="cls-5" d="m679.74,270.4h0c0-1.29-1.05-2.34-2.34-2.34h0c-1.29,0-2.34,1.05-2.34,2.34h0v4.68h4.68v-4.68Z"/>
                <path class="cls-5" d="m696.13,238.79h0c0-1.29-1.05-2.34-2.34-2.34h0c-1.29,0-2.34,1.05-2.34,2.34h0v4.68h4.68v-4.68Z"/>
              </g>
              <rect class="cls-5" x="625.92" y="248.15" width="4.68" height="4.68"/>
              <rect class="cls-5" x="602.51" y="262.2" width="4.68" height="4.68"/>
              <rect class="cls-5" x="613.04" y="262.2" width="4.68" height="4.68"/>
              <rect class="cls-5" x="635.29" y="248.15" width="4.68" height="4.68"/>
              <polyline class="cls-5" points="644.64 209.85 644.64 177.95 677.4 177.95 677.4 203.69"/>
              <polyline class="cls-5" points="644.64 177.95 644.64 168.59 654 177.95 661.02 168.59 668.04 177.95 677.4 168.59 677.4 177.95"/>
              <line class="cls-5" x1="644.64" y1="182.63" x2="677.4" y2="182.63"/>
              <line class="cls-5" x1="644.64" y1="189.65" x2="677.4" y2="189.65"/>
              <line class="cls-5" x1="644.64" y1="193.17" x2="677.4" y2="193.17"/>
              <line class="cls-5" x1="644.64" y1="241.17" x2="677.4" y2="241.17"/>
              <polyline class="cls-5" points="646.98 170.93 654 145.19 668.04 145.19 675.06 170.93"/>
              <path class="cls-5" d="m670.38,142.85c0-1.29-1.05-2.34-2.34-2.34h-14.04c-1.29,0-2.34,1.05-2.34,2.34h0c0,1.29,1.05,2.34,2.34,2.34h14.04c1.29,0,2.34-1.05,2.34-2.34h0Z"/>
              <line class="cls-5" x1="654" y1="140.51" x2="654" y2="133.68"/>
              <line class="cls-5" x1="668.04" y1="140.51" x2="668.04" y2="133.68"/>
              <path class="cls-5" d="m661.02,135.83s-9.36,0-9.36-7.02,9.36-9.36,9.36-16.38"/>
              <path class="cls-5" d="m661.02,135.83s9.36,0,9.36-7.02c0-7.02-9.36-9.36-9.36-16.38"/>
              <line class="cls-5" x1="646.98" y1="236.45" x2="677.4" y2="236.45"/>
              <g>
                <path class="cls-5" d="m644.68,249.38c0,7-9.3,9.35-9.36,16.32v.06c0,7.02,9.36,7.02,9.36,7.02"/>
                <path class="cls-5" d="m644.68,249.38c0,7,9.3,9.35,9.36,16.32v.06c0,7.02-9.36,7.02-9.36,7.02"/>
              </g>
              <g>
                <path class="cls-5" d="m677.44,264.58s-9.36,0-9.36-7.02,9.36-9.36,9.36-16.38"/>
                <path class="cls-5" d="m677.44,264.58s9.36,0,9.36-7.02c0-7.02-9.36-9.36-9.36-16.38"/>
              </g>
              <polyline class="cls-5" points="686.8 257.57 686.8 280.91 668.08 280.91 668.08 257.57"/>
            </g>
            <line class="cls-5" x1="653.04" y1="148.7" x2="669" y2="148.7"/>
            <polygon class="cls-5" points="621.29 257.51 609.59 226.94 597.89 257.51 621.29 257.51"/>
            <polygon class="cls-5" points="712.5 281.04 700.8 250.47 689.1 281.04 712.5 281.04"/>
            <rect class="cls-5" x="597.89" y="257.51" width="23.4" height="23.4"/>
            <path class="cls-5" d="m654.04,265.76v15.15h-18.72v-15.15c0,7.02,9.36,7.02,9.36,7.02,0,0,9.36,0,9.36-7.02Z"/>
            <rect class="cls-5" x="597.89" y="280.91" width="114.61" height="32.21"/>
            <path class="cls-5" d="m609.58,287.93h0c0-1.29-1.05-2.34-2.34-2.34h0c-1.29,0-2.34,1.05-2.34,2.34h0v4.68h4.68v-4.68Z"/>
            <path class="cls-5" d="m620.11,287.93h0c0-1.29-1.05-2.34-2.34-2.34h0c-1.29,0-2.34,1.05-2.34,2.34h0v4.68h4.68v-4.68Z"/>
            <path class="cls-5" d="m630.64,287.93h0c0-1.29-1.05-2.34-2.34-2.34h0c-1.29,0-2.34,1.05-2.34,2.34h0v4.68h4.68v-4.68Z"/>
            <path class="cls-5" d="m641.17,287.93h0c0-1.29-1.05-2.34-2.34-2.34h0c-1.29,0-2.34,1.05-2.34,2.34h0v4.68h4.68v-4.68Z"/>
            <path class="cls-5" d="m651.7,287.93h0c0-1.29-1.05-2.34-2.34-2.34h0c-1.29,0-2.34,1.05-2.34,2.34h0v4.68h4.68v-4.68Z"/>
            <path class="cls-5" d="m662.23,287.93h0c0-1.29-1.05-2.34-2.34-2.34h0c-1.29,0-2.34,1.05-2.34,2.34h0v4.68h4.68v-4.68Z"/>
            <path class="cls-5" d="m672.76,287.93h0c0-1.29-1.05-2.34-2.34-2.34h0c-1.29,0-2.34,1.05-2.34,2.34h0v4.68h4.68v-4.68Z"/>
            <path class="cls-5" d="m683.29,287.93h0c0-1.29-1.05-2.34-2.34-2.34h0c-1.29,0-2.34,1.05-2.34,2.34h0v4.68h4.68v-4.68Z"/>
            <path class="cls-5" d="m693.82,287.93h0c0-1.29-1.05-2.34-2.34-2.34h0c-1.29,0-2.34,1.05-2.34,2.34h0v4.68h4.68v-4.68Z"/>
            <path class="cls-5" d="m704.35,287.93h0c0-1.29-1.05-2.34-2.34-2.34h0c-1.29,0-2.34,1.05-2.34,2.34h0v4.68h4.68v-4.68Z"/>
            <line class="cls-5" x1="597.89" y1="292.61" x2="712.5" y2="292.61"/>
            <line class="cls-5" x1="597.89" y1="296.12" x2="712.5" y2="296.12"/>
          </g>
          <line class="cls-5" x1="661.02" y1="112.43" x2="661.02" y2="100.93"/>
          <line class="cls-5" x1="658.76" y1="104.1" x2="663.28" y2="104.1"/>
        </g>
      </g>
    </g>
    <g>
      <line class="cls-5" x1="1" y1="313.12" x2="724" y2="313.12"/>
      <line class="cls-5" x1="11.01" y1="320.93" x2="713.99" y2="320.93"/>
      <line class="cls-5" x1="21.01" y1="328.75" x2="703.99" y2="328.75"/>
      <line class="cls-5" x1="31.02" y1="336.56" x2="693.98" y2="336.56"/>
      <line class="cls-5" x1="41.02" y1="344.37" x2="683.98" y2="344.37"/>
    </g>
    <g>
      <polyline class="cls-5" points="255.09 142.47 279.17 142.47 279.17 214.21 330.75 214.21 330.75 199.3 338.57 191.48 377.85 191.48 377.85 201.95 387.64 201.95"/>
      <polyline class="cls-5" points="125.02 227.86 160.41 227.86 160.41 190.4 189.58 190.4 189.58 217.85 202.6 217.85"/>
      <polyline class="cls-5" points="70.16 186.89 86.66 186.89 86.66 222.99 112.05 222.99 112.05 232.11"/>
      <polyline class="cls-5" points="482.94 223.13 499.54 223.13 499.54 142.47 524.86 142.47 524.86 223.13 537.24 223.13 544.9 215.46 552.7 215.46"/>
      <line class="cls-5" x1="607.52" y1="159.52" x2="639.52" y2="159.52"/>
    </g>
    <g>
      <circle class="cls-3" cx="98.31" cy="34.32" r="15.84" transform="translate(-5.43 25.29) rotate(-14.27)"/>
      <line class="cls-4" x1="98.31" y1="1" x2="98.31" y2="10.52"/>
      <line class="cls-4" x1="74.75" y1="10.76" x2="81.48" y2="17.49"/>
      <line class="cls-4" x1="64.99" y1="34.32" x2="74.51" y2="34.32"/>
      <line class="cls-4" x1="74.75" y1="57.89" x2="81.48" y2="51.15"/>
      <line class="cls-4" x1="98.31" y1="67.65" x2="98.31" y2="58.13"/>
      <line class="cls-4" x1="121.88" y1="57.89" x2="115.15" y2="51.15"/>
      <line class="cls-4" x1="131.64" y1="34.32" x2="122.12" y2="34.32"/>
      <line class="cls-4" x1="121.88" y1="10.76" x2="115.15" y2="17.49"/>
    </g>
    <polyline class="cls-5" points="300.31 227.68 345.52 227.68 345.52 244.19"/>
    <g>
      <g>
        <path class="cls-7" d="m345.01,129.19c3.31,0,6-2.69,6-6s-2.69-6-6-6c0-2.21-1.79-4-4-4-.36,0-.7.06-1.03.15-1.36-2.46-3.96-4.15-6.97-4.15-4.42,0-8,3.58-8,8-3.31,0-6,2.69-6,6s2.69,6,6,6h20Z"/>
        <path class="cls-5" d="m345.01,129.19c3.31,0,6-2.69,6-6s-2.69-6-6-6c0-2.21-1.79-4-4-4-.36,0-.7.06-1.03.15-1.36-2.46-3.96-4.15-6.97-4.15-4.42,0-8,3.58-8,8-3.31,0-6,2.69-6,6s2.69,6,6,6h20Z"/>
      </g>
      <g>
        <path class="cls-7" d="m627.5,93.27c-3.31,0-6-2.69-6-6s2.69-6,6-6c0-2.21,1.79-4,4-4,.36,0,.7.06,1.03.15,1.36-2.46,3.96-4.15,6.97-4.15,4.42,0,8,3.58,8,8,3.31,0,6,2.69,6,6s-2.69,6-6,6h-20Z"/>
        <path class="cls-5" d="m627.5,93.27c-3.31,0-6-2.69-6-6s2.69-6,6-6c0-2.21,1.79-4,4-4,.36,0,.7.06,1.03.15,1.36-2.46,3.96-4.15,6.97-4.15,4.42,0,8,3.58,8,8,3.31,0,6,2.69,6,6s-2.69,6-6,6h-20Z"/>
      </g>
      <g>
        <path class="cls-7" d="m148.37,142.82c2.42,0,4.39-1.79,4.39-4s-1.97-4-4.39-4c0-2.21-1.97-4-4.39-4-.04,0-.07,0-.11.01-.5-2.29-2.72-4.01-5.38-4.01-.82,0-1.59.18-2.29.47-.54-3.1-3.48-5.47-7.04-5.47-3.94,0-7.13,2.91-7.13,6.5,0,.48.06.95.17,1.4-1.01-.57-2.19-.9-3.46-.9-3.64,0-6.59,2.69-6.59,6-2.42,0-4.39,1.79-4.39,4s1.97,4,4.39,4h36.22Z"/>
        <path class="cls-5" d="m148.37,142.82c2.42,0,4.39-1.79,4.39-4s-1.97-4-4.39-4c0-2.21-1.97-4-4.39-4-.04,0-.07,0-.11.01-.5-2.29-2.72-4.01-5.38-4.01-.82,0-1.59.18-2.29.47-.54-3.1-3.48-5.47-7.04-5.47-3.94,0-7.13,2.91-7.13,6.5,0,.48.06.95.17,1.4-1.01-.57-2.19-.9-3.46-.9-3.64,0-6.59,2.69-6.59,6-2.42,0-4.39,1.79-4.39,4s1.97,4,4.39,4h36.22Z"/>
      </g>
      <g>
        <path class="cls-7" d="m492.14,87.35c2.42,0,4.39-1.79,4.39-4s-1.97-4-4.39-4c0-2.21-1.97-4-4.39-4-.04,0-.07,0-.11.01-.5-2.29-2.72-4.01-5.38-4.01-.82,0-1.59.18-2.29.47-.54-3.1-3.48-5.47-7.04-5.47-3.94,0-7.13,2.91-7.13,6.5,0,.48.06.95.17,1.4-1.01-.57-2.19-.9-3.46-.9-3.64,0-6.59,2.69-6.59,6-2.42,0-4.39,1.79-4.39,4s1.97,4,4.39,4h36.22Z"/>
        <path class="cls-5" d="m492.14,87.35c2.42,0,4.39-1.79,4.39-4s-1.97-4-4.39-4c0-2.21-1.97-4-4.39-4-.04,0-.07,0-.11.01-.5-2.29-2.72-4.01-5.38-4.01-.82,0-1.59.18-2.29.47-.54-3.1-3.48-5.47-7.04-5.47-3.94,0-7.13,2.91-7.13,6.5,0,.48.06.95.17,1.4-1.01-.57-2.19-.9-3.46-.9-3.64,0-6.59,2.69-6.59,6-2.42,0-4.39,1.79-4.39,4s1.97,4,4.39,4h36.22Z"/>
      </g>
      <g>
        <path class="cls-7" d="m261.06,71.16c-2.42,0-4.39-1.79-4.39-4s1.97-4,4.39-4c0-2.21,1.97-4,4.39-4,.04,0,.07,0,.11.01.5-2.29,2.72-4.01,5.38-4.01.82,0,1.59.18,2.29.47.54-3.1,3.48-5.47,7.04-5.47,3.94,0,7.13,2.91,7.13,6.5,0,.48-.06.95-.17,1.4,1.01-.57,2.19-.9,3.46-.9,3.64,0,6.59,2.69,6.59,6,2.42,0,4.39,1.79,4.39,4s-1.97,4-4.39,4h-36.22Z"/>
        <path class="cls-5" d="m261.06,71.16c-2.42,0-4.39-1.79-4.39-4s1.97-4,4.39-4c0-2.21,1.97-4,4.39-4,.04,0,.07,0,.11.01.5-2.29,2.72-4.01,5.38-4.01.82,0,1.59.18,2.29.47.54-3.1,3.48-5.47,7.04-5.47,3.94,0,7.13,2.91,7.13,6.5,0,.48-.06.95-.17,1.4,1.01-.57,2.19-.9,3.46-.9,3.64,0,6.59,2.69,6.59,6,2.42,0,4.39,1.79,4.39,4s-1.97,4-4.39,4h-36.22Z"/>
      </g>
      <g>
        <path class="cls-7" d="m465.11,160.27c2.42,0,4.39-1.79,4.39-4s-1.97-4-4.39-4c0-2.21-1.97-4-4.39-4-.04,0-.07,0-.11.01-.5-2.29-2.72-4.01-5.38-4.01-.82,0-1.59.18-2.29.47-.54-3.1-3.48-5.47-7.04-5.47-3.94,0-7.13,2.91-7.13,6.5,0,.48.06.95.17,1.4-1.01-.57-2.19-.9-3.46-.9-3.64,0-6.59,2.69-6.59,6-2.42,0-4.39,1.79-4.39,4s1.97,4,4.39,4h36.22Z"/>
        <path class="cls-5" d="m465.11,160.27c2.42,0,4.39-1.79,4.39-4s-1.97-4-4.39-4c0-2.21-1.97-4-4.39-4-.04,0-.07,0-.11.01-.5-2.29-2.72-4.01-5.38-4.01-.82,0-1.59.18-2.29.47-.54-3.1-3.48-5.47-7.04-5.47-3.94,0-7.13,2.91-7.13,6.5,0,.48.06.95.17,1.4-1.01-.57-2.19-.9-3.46-.9-3.64,0-6.59,2.69-6.59,6-2.42,0-4.39,1.79-4.39,4s1.97,4,4.39,4h36.22Z"/>
      </g>
    </g>
  </g>
</svg>